<?xml version="1.0" encoding="UTF-8"?><svg xmlns="http://www.w3.org/2000/svg" version="1.1" viewBox="0 0 695.15 207.56">
  <g fill="#009ac7">
    <path d="M561.4 71.25c0 47.58 56.25 40.77 56.25 7.5V0H561.4v71.25Z"/>
    <path d="M483.9 121.25c0 23.5 16.24 37.5 40 37.5h135c20.05 0 36.25-13.84 36.25-33.75V26.25c0-12-8.94-25-20-25H643.9V82.5c0 61.71-107.5 61.23-107.5 1.25V0h-23.75C497.2 0 483.9 9.8 483.9 25v96.25Z"/></g>
  <g fill="#fff">
    <path d="M123.75 207.56H46.2A46.24 46.24 0 0 1 0 161.38V62a46.24 46.24 0 0 1 46.19-46.18h77.56v39H46.2A7.2 7.2 0 0 0 39 62v99.37a7.2 7.2 0 0 0 7.19 7.19h77.57v39Z"/>
    <path d="M263.17 124.16V98.62a36.8 36.8 0 0 0-36.8-36.81h-43.7a36.8 36.8 0 0 0-36.8 36.8v72.15a36.8 36.8 0 0 0 36.8 36.8h80.07v-39h-71.41a6.47 6.47 0 0 1-6.46-6.47v-7.89l78.3-30.04Zm-78.3-18.63a6.46 6.46 0 0 1 6.46-6.46h29.64c6.84 0 6.47 7.68 6.47 7.69l-42.57 16.4v-17.63Z"/>
    <path d="M468.16 101.74v105.83h-39v-97.52c0-4.68-3.83-8.5-8.5-8.5h-15.87a8.49 8.49 0 0 0-8.48 8.48v97.53h-39v-97.51c0-4.68-3.83-8.5-8.5-8.5h-15.87a8.49 8.49 0 0 0-8.48 8.49v97.53h-39V101.74c0-22.02 17.58-39.93 39.18-39.93h32.48c7.17 0 13.9 1.97 19.69 5.42a38.35 38.35 0 0 1 19.68-5.42h32.48c21.6 0 39.19 17.91 39.19 39.93Z"/></g></svg>