<?xml version="1.0"?>
<svg version="1.1" id="圖層_1" xmlns="http://www.w3.org/2000/svg" x="0" y="0" viewBox="0 0 100 100" xml:space="preserve"><path d="M70.9 34.2H38.1V24c0-1.8-1.5-3.3-3.3-3.3H13.3c-1.8 0-3.3 1.5-3.3 3.3v52c0 1.8 1.5 3.3 3.3 3.3h57.6c1.8 0 3.3-1.5 3.3-3.3V37.5c0-1.8-1.5-3.3-3.3-3.3z" fill="#f8b26a" stroke="#333" stroke-width="3" stroke-miterlimit="10"/><path d="M70.9 79.3H13.3c-1.8 0-2.7-1.2-2.1-2.7l15-33.1c.4-.9 1.4-1.5 2.5-1.5h59c1.8 0 2.7 1.2 2.1 2.7L75.4 76.6c-.7 1.5-2.7 2.7-4.5 2.7z" fill="#f5e6c8" stroke="#333" stroke-width="3" stroke-miterlimit="10"/><metadata xmlns:d="https://loading.io/stock/"><d:name>folder</d:name><d:tags>collection,set,document,open,directory,group,folder,web application</d:tags><d:license>pro</d:license><d:slug>36nf5m</d:slug></metadata></svg>