<?xml version="1.0" encoding="UTF-8"?>
<!DOCTYPE svg PUBLIC "-//W3C//DTD SVG 1.1//EN" "http://www.w3.org/Graphics/SVG/1.1/DTD/svg11.dtd">
<svg xmlns="http://www.w3.org/2000/svg" version="1.1" width="256px" height="256px" style="shape-rendering:geometricPrecision; text-rendering:geometricPrecision; image-rendering:optimizeQuality; fill-rule:evenodd; clip-rule:evenodd" xmlns:xlink="http://www.w3.org/1999/xlink">
<g><path style="opacity:1" fill="#090803" d="M 120.5,14.5 C 177.089,13.5721 215.589,39.5721 236,92.5C 250.281,151.036 232.114,196.203 181.5,228C 131.115,250.963 85.6147,243.796 45,206.5C 22.993,182.153 12.6596,153.486 14,120.5C 14.4988,124.486 14.6655,128.486 14.5,132.5C 15.8221,132.33 16.9887,132.663 18,133.5C 38.7708,170.468 70.2708,185.968 112.5,180C 150.865,169.969 173.698,145.469 181,106.5C 183.718,66.9212 167.885,37.4212 133.5,18C 132.663,16.9887 132.33,15.8221 132.5,14.5C 128.5,14.5 124.5,14.5 120.5,14.5 Z"/></g>
<g><path style="opacity:1" fill="#ebd85c" d="M 139.5,18.5 C 177.213,22.6501 205.713,41.3167 225,74.5C 246.142,118.881 241.809,160.548 212,199.5C 174.602,238.405 130.769,247.905 80.5,228C 44.0161,209.521 23.1828,180.021 18,139.5C 38.4207,172.793 68.254,187.627 107.5,184C 150.331,175.835 175.831,150.335 184,107.5C 187.389,75.9896 177.555,49.4896 154.5,28C 149.866,24.1877 144.866,21.021 139.5,18.5 Z"/></g>
</svg>
