<svg xmlns="http://www.w3.org/2000/svg" width="256" height="183" viewBox="0 0 256 183" version="1.1"><path d="M 202.788 50.071 C 181.609 52.506, 164.153 69.917, 161.486 91.268 L 160.770 97 164.248 97 C 184.016 97, 202.514 111.229, 207.605 130.350 C 208.359 133.183, 208.982 137.412, 208.988 139.750 L 209 144 213.343 144 C 215.732 144, 220.309 143.098, 223.514 141.995 C 243.624 135.076, 256 117.935, 256 97 C 256 68.183, 231.696 46.749, 202.788 50.071 M 127.715 129.993 C 106.362 134.494, 92.739 145.559, 94.292 157.140 C 96.328 172.322, 118.765 183, 148.630 183 C 184.379 183, 209.242 166.116, 200.044 148.086 C 192.205 132.720, 156.796 123.863, 127.715 129.993" stroke="none" fill="#5c24ac" fill-rule="evenodd"/><path d="M 98.893 2.374 C 91.247 5.074, 85.140 9.032, 79.232 15.120 C 72.120 22.447, 66.044 36.066, 66.012 44.750 C 66.001 47.760, 66.242 48, 69.290 48 C 78.889 48, 92.716 54.014, 101.249 61.900 C 110.590 70.533, 114.973 79.797, 115.134 91.247 C 115.212 96.801, 115.308 97, 117.897 97 C 127.427 97, 141.465 90.339, 149.344 82.078 C 158.578 72.397, 162.967 61.413, 162.988 47.932 C 163.022 26.532, 148.815 7.680, 128.068 1.593 C 119.830 -0.823, 106.977 -0.479, 98.893 2.374 M 36 82.650 C 18.464 86.097, 5.756 92.913, 1.415 101.200 C -0.407 104.678, -0.397 111.331, 1.435 114.875 C 4.903 121.581, 15.110 128.024, 28 131.644 C 33.117 133.081, 38.118 133.473, 51.500 133.485 C 69.772 133.501, 76.877 132.137, 88.082 126.458 C 107.790 116.472, 107.801 99.521, 88.107 89.558 C 77.565 84.225, 70.477 82.747, 54 82.444 C 45.475 82.287, 37.375 82.380, 36 82.650" stroke="none" fill="#ccbcfc" fill-rule="evenodd"/></svg>